<svg width="100" height="100" viewBox="0 0 100 100" fill="none" xmlns="http://www.w3.org/2000/svg">
<circle cx="50" cy="50" r="50" fill="#1E3387"/>
<g clip-path="url(#clip0_13_232)">
<path d="M34.9997 35H64.9997C65.4417 35 65.8656 35.1756 66.1782 35.4882C66.4907 35.8007 66.6663 36.2246 66.6663 36.6667V63.3333C66.6663 63.7754 66.4907 64.1993 66.1782 64.5118C65.8656 64.8244 65.4417 65 64.9997 65H34.9997C34.5576 65 34.1337 64.8244 33.8212 64.5118C33.5086 64.1993 33.333 63.7754 33.333 63.3333V36.6667C33.333 36.2246 33.5086 35.8007 33.8212 35.4882C34.1337 35.1756 34.5576 35 34.9997 35ZM50.0997 49.4717L39.413 40.3967L37.2547 42.9367L50.1213 53.8617L62.7563 42.9283L60.5763 40.4067L50.1013 49.4717H50.0997Z" fill="white"/>
</g>
<defs>
<clipPath id="clip0_13_232">
<rect width="40" height="40" fill="white" transform="translate(30 30)"/>
</clipPath>
</defs>
</svg>
