<svg width="223" height="46" viewBox="0 0 223 46" fill="none" xmlns="http://www.w3.org/2000/svg">
<path d="M7.45511 13.7264H0.189216V10.1692H18.6945V13.7264H11.3908V37H7.45511V13.7264ZM32.8275 22.2412C32.6509 22.1655 32.4743 22.0898 32.2977 22.0141C32.1463 21.9636 31.9697 21.9132 31.7679 21.8627C31.5661 21.8123 31.3516 21.787 31.1246 21.787C30.3929 21.787 29.7117 21.9132 29.081 22.1655C28.4503 22.3925 27.9079 22.7079 27.4538 23.1115C26.9996 23.5152 26.6338 23.9946 26.3563 24.5496C26.104 25.0794 25.9779 25.647 25.9779 26.2525L25.94 37H22.2692V18.8731H25.1832L25.94 20.8788C26.4446 20.1472 27.1006 19.5669 27.9079 19.138C28.7404 18.6839 29.7748 18.4568 31.011 18.4568C31.8183 18.4568 32.7392 18.5704 33.7736 18.7974L32.8275 22.2412ZM53.3737 18.8731V37H50.2705L49.7029 34.9186C49.0722 35.7512 48.2649 36.3819 47.2809 36.8108C46.297 37.2397 45.3005 37.4541 44.2913 37.4541C43.0299 37.4541 41.8441 37.2144 40.7341 36.7351C39.6492 36.2305 38.6905 35.5493 37.858 34.6916C37.0507 33.8338 36.4073 32.8246 35.928 31.6641C35.4486 30.5036 35.209 29.2674 35.209 27.9555C35.209 26.6436 35.4486 25.4074 35.928 24.2468C36.4073 23.0863 37.0507 22.0772 37.858 21.2194C38.6905 20.3616 39.6492 19.693 40.7341 19.2137C41.8441 18.7091 43.0299 18.4568 44.2913 18.4568C45.3005 18.4568 46.2718 18.6587 47.2052 19.0623C48.1387 19.4408 48.9713 20.0462 49.7029 20.8788L50.2705 18.8731H53.3737ZM44.2913 34.1996C45.023 34.1996 45.7167 34.0356 46.3727 33.7076C47.0286 33.3797 47.5963 32.9382 48.0756 32.3831C48.555 31.8029 48.9334 31.1343 49.2109 30.3774C49.4885 29.6206 49.6272 28.8133 49.6272 27.9555C49.6272 27.0977 49.4885 26.2904 49.2109 25.5335C48.9334 24.7766 48.555 24.1207 48.0756 23.5657C47.5963 22.9854 47.0286 22.5313 46.3727 22.2033C45.7167 21.8753 45.023 21.7113 44.2913 21.7113C43.5597 21.7113 42.8659 21.8753 42.2099 22.2033C41.554 22.5313 40.9863 22.9854 40.507 23.5657C40.0277 24.1207 39.6492 24.7766 39.3717 25.5335C39.0942 26.2904 38.9554 27.0977 38.9554 27.9555C38.9554 28.8133 39.0942 29.6206 39.3717 30.3774C39.6492 31.1343 40.0277 31.8029 40.507 32.3831C40.9863 32.9382 41.554 33.3797 42.2099 33.7076C42.8659 34.0356 43.5597 34.1996 44.2913 34.1996ZM65.4356 37.4541C64.1742 37.4541 62.9884 37.2144 61.8784 36.7351C60.7935 36.2305 59.8348 35.5493 59.0023 34.6916C58.195 33.8338 57.5516 32.8246 57.0723 31.6641C56.5929 30.5036 56.3532 29.2674 56.3532 27.9555C56.3532 26.6436 56.5929 25.4074 57.0723 24.2468C57.5516 23.0863 58.195 22.0772 59.0023 21.2194C59.8348 20.3616 60.7935 19.693 61.8784 19.2137C62.9884 18.7091 64.1742 18.4568 65.4356 18.4568C66.8989 18.4568 68.2486 18.7848 69.4848 19.4408C70.7211 20.0967 71.7554 20.9923 72.588 22.1276L70.0146 24.1333C69.5101 23.4017 68.8667 22.834 68.0846 22.4304C67.3278 22.0015 66.5078 21.787 65.6248 21.787C64.868 21.787 64.1489 21.951 63.4678 22.279C62.7866 22.5817 62.1937 23.0106 61.6891 23.5657C61.1846 24.1207 60.7809 24.7766 60.4782 25.5335C60.2006 26.2904 60.0619 27.0977 60.0619 27.9555C60.0619 28.8133 60.2006 29.6206 60.4782 30.3774C60.7809 31.1343 61.1846 31.8029 61.6891 32.3831C62.1937 32.9382 62.7866 33.3797 63.4678 33.7076C64.1489 34.0356 64.868 34.1996 65.6248 34.1996C66.6088 34.1996 67.5044 33.9347 68.3117 33.4049C69.119 32.8751 69.775 32.1687 70.2795 31.2857L72.7772 33.4806C71.9699 34.6916 70.9229 35.6629 69.6362 36.3945C68.3495 37.1009 66.9493 37.4541 65.4356 37.4541ZM80.1874 37H76.5166V9.37447H80.1874V26.3282L87.3019 18.8731H91.8431L84.8799 26.1768L92.3729 37H88.2101L82.4958 28.6745L80.1874 31.0965V37ZM123.077 44.493V18.8731H125.991L126.748 20.7653C127.479 20.0336 128.312 19.466 129.245 19.0623C130.204 18.6587 131.276 18.4568 132.462 18.4568C133.724 18.4568 134.884 18.7091 135.944 19.2137C137.029 19.693 137.962 20.3616 138.744 21.2194C139.526 22.0772 140.132 23.0863 140.561 24.2468C141.015 25.4074 141.242 26.6436 141.242 27.9555C141.242 29.2674 141.015 30.5036 140.561 31.6641C140.132 32.8246 139.526 33.8338 138.744 34.6916C137.962 35.5493 137.029 36.2305 135.944 36.7351C134.884 37.2144 133.724 37.4541 132.462 37.4541C131.226 37.4541 130.141 37.2523 129.208 36.8486C128.274 36.4197 127.454 35.8142 126.748 35.0322V44.493H123.077ZM132.159 21.787C131.428 21.787 130.734 21.9132 130.078 22.1655C129.422 22.3925 128.842 22.771 128.337 23.3008C127.858 23.8053 127.479 24.4487 127.202 25.2308C126.924 25.9876 126.786 26.8959 126.786 27.9555C126.786 29.0908 126.924 30.0621 127.202 30.8694C127.479 31.6515 127.858 32.2948 128.337 32.7994C128.842 33.2788 129.422 33.632 130.078 33.859C130.734 34.0861 131.428 34.1996 132.159 34.1996C132.891 34.1996 133.585 34.0356 134.241 33.7076C134.897 33.3797 135.464 32.9382 135.944 32.3831C136.423 31.8029 136.801 31.1343 137.079 30.3774C137.357 29.6206 137.495 28.8133 137.495 27.9555C137.495 27.0977 137.357 26.2904 137.079 25.5335C136.801 24.7766 136.423 24.1207 135.944 23.5657C135.464 23.0106 134.897 22.5817 134.241 22.279C133.585 21.951 132.891 21.787 132.159 21.787ZM153.028 37.4541C151.716 37.4541 150.48 37.2144 149.32 36.7351C148.184 36.2305 147.188 35.5493 146.33 34.6916C145.472 33.8338 144.791 32.8246 144.286 31.6641C143.807 30.5036 143.567 29.2674 143.567 27.9555C143.567 26.6436 143.794 25.4074 144.249 24.2468C144.728 23.0863 145.359 22.0772 146.141 21.2194C146.948 20.3616 147.881 19.693 148.941 19.2137C150.001 18.7091 151.136 18.4568 152.347 18.4568C153.583 18.4568 154.718 18.6713 155.753 19.1002C156.812 19.5291 157.721 20.1976 158.478 21.1059C159.26 22.0141 159.865 23.1746 160.294 24.5874C160.723 25.975 160.937 27.6401 160.937 29.5827H147.465C147.642 30.2387 147.919 30.8568 148.298 31.4371C148.676 31.9921 149.118 32.484 149.622 32.9129C150.152 33.3166 150.732 33.632 151.363 33.859C152.019 34.0861 152.7 34.1996 153.407 34.1996C154.365 34.1996 155.248 34.023 156.056 33.6698C156.888 33.3166 157.595 32.8499 158.175 32.2696L160.445 34.5402C159.562 35.4232 158.478 36.1296 157.191 36.6594C155.929 37.1892 154.542 37.4541 153.028 37.4541ZM152.347 21.787C151.767 21.787 151.212 21.9006 150.682 22.1276C150.177 22.3547 149.698 22.67 149.244 23.0737C148.815 23.4774 148.436 23.9567 148.109 24.5117C147.806 25.0668 147.579 25.6723 147.427 26.3282H157.002C156.951 25.7227 156.812 25.1425 156.585 24.5874C156.358 24.0324 156.043 23.553 155.639 23.1494C155.236 22.7205 154.756 22.3925 154.201 22.1655C153.671 21.9132 153.053 21.787 152.347 21.787ZM179.739 18.5538V37H176.981L166.679 22.8466V37H163.843V18.5538H166.705L177.007 32.7852V18.5538H179.739ZM191.796 33.2157C192.023 33.0138 192.225 32.7868 192.402 32.5345C192.578 32.2822 192.667 31.9921 192.667 31.6641C192.667 31.2604 192.515 30.9199 192.213 30.6423C191.935 30.3648 191.582 30.1378 191.153 29.9612C190.749 29.7593 190.32 29.608 189.866 29.507C189.412 29.4061 189.034 29.3178 188.731 29.2421C187.898 29.0403 187.116 28.8006 186.385 28.5231C185.653 28.2204 185.01 27.8672 184.455 27.4635C183.925 27.0346 183.496 26.5427 183.168 25.9876C182.865 25.4074 182.714 24.7262 182.714 23.9441C182.714 23.2125 182.891 22.5313 183.244 21.9006C183.597 21.2446 184.064 20.677 184.644 20.1976C185.249 19.693 185.943 19.302 186.725 19.0245C187.533 18.7217 188.378 18.5704 189.261 18.5704C190.043 18.5704 190.787 18.6839 191.494 18.911C192.2 19.138 192.831 19.4534 193.386 19.857C193.966 20.2355 194.445 20.7022 194.824 21.2572C195.227 21.8123 195.492 22.4304 195.618 23.1115L192.326 23.9063C192.175 23.3008 191.847 22.7962 191.342 22.3925C190.838 21.9889 190.144 21.787 189.261 21.787C188.958 21.787 188.643 21.8375 188.315 21.9384C187.987 22.0141 187.684 22.1402 187.406 22.3168C187.129 22.4934 186.889 22.7079 186.687 22.9602C186.511 23.2125 186.423 23.5026 186.423 23.8306C186.423 24.1838 186.523 24.4865 186.725 24.7388C186.952 24.9911 187.217 25.2055 187.52 25.3821C187.823 25.5335 188.151 25.6597 188.504 25.7606C188.857 25.8615 189.185 25.9498 189.488 26.0255C190.825 26.3534 191.935 26.7066 192.818 27.0851C193.701 27.4635 194.407 27.8798 194.937 28.3339C195.467 28.788 195.833 29.2926 196.035 29.8476C196.262 30.3774 196.375 30.9829 196.375 31.6641C196.375 32.4714 196.186 33.2283 195.808 33.9347C195.454 34.6411 194.95 35.2592 194.294 35.789C193.663 36.2936 192.894 36.6973 191.986 37C191.103 37.2775 190.144 37.4163 189.109 37.4163C187.545 37.4163 186.145 37.0378 184.909 36.281C183.698 35.4989 182.878 34.4645 182.449 33.1778L185.552 31.7776C185.956 32.6606 186.473 33.2661 187.104 33.5941C187.734 33.8969 188.453 34.0482 189.261 34.0482C190.27 34.0482 191.115 33.7707 191.796 33.2157ZM208.208 37.4541C206.897 37.4541 205.66 37.2144 204.5 36.7351C203.365 36.2305 202.368 35.5493 201.51 34.6916C200.652 33.8338 199.971 32.8246 199.467 31.6641C198.987 30.5036 198.748 29.2674 198.748 27.9555C198.748 26.6436 198.975 25.4074 199.429 24.2468C199.908 23.0863 200.539 22.0772 201.321 21.2194C202.128 20.3616 203.062 19.693 204.121 19.2137C205.181 18.7091 206.316 18.4568 207.527 18.4568C208.763 18.4568 209.899 18.6713 210.933 19.1002C211.993 19.5291 212.901 20.1976 213.658 21.1059C214.44 22.0141 215.045 23.1746 215.474 24.5874C215.903 25.975 216.118 27.6401 216.118 29.5827H202.645C202.822 30.2387 203.1 30.8568 203.478 31.4371C203.856 31.9921 204.298 32.484 204.803 32.9129C205.332 33.3166 205.913 33.632 206.543 33.859C207.199 34.0861 207.88 34.1996 208.587 34.1996C209.546 34.1996 210.429 34.023 211.236 33.6698C212.068 33.3166 212.775 32.8499 213.355 32.2696L215.626 34.5402C214.743 35.4232 213.658 36.1296 212.371 36.6594C211.11 37.1892 209.722 37.4541 208.208 37.4541ZM207.527 21.787C206.947 21.787 206.392 21.9006 205.862 22.1276C205.358 22.3547 204.878 22.67 204.424 23.0737C203.995 23.4774 203.617 23.9567 203.289 24.5117C202.986 25.0668 202.759 25.6723 202.608 26.3282H212.182C212.132 25.7227 211.993 25.1425 211.766 24.5874C211.539 24.0324 211.223 23.553 210.82 23.1494C210.416 22.7205 209.937 22.3925 209.382 22.1655C208.852 21.9132 208.234 21.787 207.527 21.787Z" fill="white"/>
<path d="M98.0115 37.2649C96.6744 37.2649 95.6148 36.8486 94.8327 36.0161C94.0506 35.1583 93.6596 34.1113 93.6596 32.8751C93.6596 31.7903 94.0001 30.6802 94.6813 29.5449C95.3625 28.3844 96.359 27.2617 97.6709 26.1768C98.9828 25.0668 100.585 24.0829 102.477 23.2251V23.0737C100.005 21.9384 98.1629 20.7148 96.9519 19.4029C95.7662 18.0658 95.1733 16.6908 95.1733 15.278C95.1733 14.2941 95.4003 13.4489 95.8545 12.7425C96.3086 12.0109 96.8888 11.4558 97.5952 11.0774C98.3016 10.6737 99.0333 10.4719 99.7901 10.4719C101.607 10.4719 103.158 11.3297 104.445 13.0453C105.732 14.7356 106.627 17.0945 107.132 20.1219H107.283C107.99 17.4981 108.809 15.3789 109.743 13.7643C110.676 12.1496 111.673 10.9639 112.733 10.207C113.792 9.45015 114.852 9.07172 115.911 9.07172C116.794 9.07172 117.564 9.29878 118.22 9.7529C118.901 10.1818 119.431 10.7873 119.809 11.5694C120.213 12.3262 120.415 13.184 120.415 14.1427C120.415 15.7826 119.645 17.3468 118.106 18.8353C116.593 20.3238 114.435 21.623 111.635 22.7331V22.8845C114.562 24.1712 116.693 25.6092 118.031 27.1986C119.368 28.788 120.036 30.3774 120.036 31.9669C120.036 32.9508 119.784 33.8086 119.279 34.5402C118.775 35.2718 118.119 35.8395 117.312 36.2431C116.529 36.6468 115.71 36.8486 114.852 36.8486C112.985 36.8486 111.345 35.9025 109.932 34.0104C108.519 32.1182 107.523 29.4944 106.943 26.139H106.791C106.11 28.7628 105.277 30.8946 104.293 32.5345C103.335 34.1744 102.3 35.3727 101.19 36.1296C100.106 36.8865 99.0459 37.2649 98.0115 37.2649Z" fill="#BFCDE0"/>
<line x1="162.016" y1="25.7215" x2="182.415" y2="25.7215" stroke="white" stroke-width="2.3652"/>
<line x1="162.016" y1="31.043" x2="182.415" y2="31.043" stroke="white" stroke-width="2.3652"/>
</svg>
