<svg width="36" height="35" viewBox="0 0 36 35" fill="none" xmlns="http://www.w3.org/2000/svg">
<g clip-path="url(#clip0_59_407)">
<path d="M3.41634 13.1247H7.79134V30.6247H3.41634C3.02957 30.6247 2.65863 30.471 2.38514 30.1975C2.11165 29.924 1.95801 29.5531 1.95801 29.1663V14.583C1.95801 14.1962 2.11165 13.8253 2.38514 13.5518C2.65863 13.2783 3.02957 13.1247 3.41634 13.1247ZM11.1353 11.239L20.4686 1.90572C20.5927 1.78131 20.7575 1.70588 20.9327 1.69328C21.1079 1.68069 21.2818 1.73179 21.4224 1.83717L22.6663 2.77051C23.0118 3.02986 23.2728 3.38571 23.4163 3.79317C23.5598 4.20063 23.5795 4.64147 23.4728 5.06009L21.7913 11.6663H31.1247C31.8982 11.6663 32.6401 11.9736 33.1871 12.5206C33.7341 13.0676 34.0413 13.8095 34.0413 14.583V17.6513C34.0417 18.0325 33.9674 18.41 33.8226 18.7626L29.3091 29.722C29.1989 29.9892 29.0119 30.2176 28.7718 30.3783C28.5316 30.5391 28.2491 30.6248 27.9601 30.6247H12.1663C11.7796 30.6247 11.4086 30.471 11.1351 30.1975C10.8617 29.924 10.708 29.5531 10.708 29.1663V12.2701C10.7081 11.8833 10.8618 11.5125 11.1353 11.239Z" fill="white"/>
</g>
<defs>
<clipPath id="clip0_59_407">
<rect width="35" height="35" fill="white" transform="translate(0.5)"/>
</clipPath>
</defs>
</svg>
