<svg width="18" height="19" viewBox="0 0 18 19" fill="none" xmlns="http://www.w3.org/2000/svg">
<path d="M16.75 8.4002H10.15V1.8002C10.15 1.50846 10.0341 1.22867 9.82782 1.02238C9.62153 0.816088 9.34174 0.700195 9.05 0.700195C8.75826 0.700195 8.47847 0.816088 8.27218 1.02238C8.06589 1.22867 7.95 1.50846 7.95 1.8002V8.4002H1.35C1.05826 8.4002 0.778473 8.51609 0.572183 8.72238C0.365893 8.92867 0.25 9.20846 0.25 9.5002C0.25 9.79193 0.365893 10.0717 0.572183 10.278C0.778473 10.4843 1.05826 10.6002 1.35 10.6002H7.95V17.2002C7.95 17.4919 8.06589 17.7717 8.27218 17.978C8.47847 18.1843 8.75826 18.3002 9.05 18.3002C9.34174 18.3002 9.62153 18.1843 9.82782 17.978C10.0341 17.7717 10.15 17.4919 10.15 17.2002V10.6002H16.75C17.0417 10.6002 17.3215 10.4843 17.5278 10.278C17.7341 10.0717 17.85 9.79193 17.85 9.5002C17.85 9.20846 17.7341 8.92867 17.5278 8.72238C17.3215 8.51609 17.0417 8.4002 16.75 8.4002Z" fill="#1E3387"/>
</svg>
